<svg xmlns="http://www.w3.org/2000/svg" width="850" height="380" viewBox="0 0 850 380">
  <defs>
    <linearGradient id="sync-glow" x1="0%" y1="0%" x2="100%" y2="0%">
      <stop offset="0%" stop-color="#06d6a0" stop-opacity="0"/>
      <stop offset="50%" stop-color="#06d6a0" stop-opacity="0.15"/>
      <stop offset="100%" stop-color="#06d6a0" stop-opacity="0"/>
    </linearGradient>
  </defs>

  <rect width="100%" height="100%" fill="#0d1117" rx="8"/>

  <!-- Title -->
  <text x="425" y="30" font-family="'Segoe UI', Arial, sans-serif" font-size="20" fill="#06d6a0" text-anchor="middle" font-weight="bold">Desktop Auto-Sync</text>
  <text x="425" y="52" font-family="'Segoe UI', Arial, sans-serif" font-size="13" fill="#8b949e" text-anchor="middle">Report changes appear in Desktop automatically. Your modeling work is preserved.</text>

  <!-- ============ 4 Steps: equal width, centered ============ -->
  <!-- Card width=160, arrow gap=30, total = 4*160 + 3*30 = 730, start x = (850-730)/2 = 60 -->

  <!-- Step 1: CLI Writes -->
  <rect x="60" y="75" width="160" height="165" rx="10" fill="#161b22" stroke="#58a6ff" stroke-width="1.5"/>
  <!-- Step badge -->
  <circle cx="140" cy="92" r="14" fill="#58a6ff"/>
  <text x="140" y="98" font-family="'Segoe UI', Arial, sans-serif" font-size="15" fill="#0d1117" text-anchor="middle" font-weight="bold">1</text>
  <text x="140" y="126" font-family="'Segoe UI', Arial, sans-serif" font-size="14" fill="#58a6ff" text-anchor="middle" font-weight="bold">CLI Writes</text>
  <!-- File icon -->
  <g transform="translate(110, 140)">
    <rect x="0" y="0" width="32" height="40" rx="3" fill="none" stroke="#58a6ff" stroke-width="1.5"/>
    <line x1="7" y1="11" x2="25" y2="11" stroke="#58a6ff" stroke-width="1" stroke-opacity="0.4"/>
    <line x1="7" y1="19" x2="25" y2="19" stroke="#58a6ff" stroke-width="1" stroke-opacity="0.4"/>
    <line x1="7" y1="27" x2="18" y2="27" stroke="#58a6ff" stroke-width="1" stroke-opacity="0.4"/>
    <!-- Pencil -->
    <line x1="26" y1="30" x2="38" y2="18" stroke="#06d6a0" stroke-width="2.5" stroke-linecap="round"/>
    <circle cx="38" cy="18" r="2.5" fill="#06d6a0"/>
  </g>
  <text x="140" y="200" font-family="'Courier New', Courier, monospace" font-size="11" fill="#8b949e" text-anchor="middle">page.json</text>
  <text x="140" y="215" font-family="'Courier New', Courier, monospace" font-size="11" fill="#8b949e" text-anchor="middle">visual.json</text>
  <text x="140" y="230" font-family="'Courier New', Courier, monospace" font-size="11" fill="#8b949e" text-anchor="middle">filters</text>

  <!-- Arrow 1 > 2 -->
  <line x1="225" y1="155" x2="248" y2="155" stroke="#F2C811" stroke-width="2.5"/>
  <polygon points="253,155 245,149 245,161" fill="#F2C811"/>

  <!-- Step 2: Snapshot -->
  <rect x="258" y="75" width="160" height="165" rx="10" fill="#161b22" stroke="#F2C811" stroke-width="1.5"/>
  <circle cx="338" cy="92" r="14" fill="#F2C811"/>
  <text x="338" y="98" font-family="'Segoe UI', Arial, sans-serif" font-size="15" fill="#0d1117" text-anchor="middle" font-weight="bold">2</text>
  <text x="338" y="126" font-family="'Segoe UI', Arial, sans-serif" font-size="14" fill="#F2C811" text-anchor="middle" font-weight="bold">Snapshot</text>
  <!-- Camera icon -->
  <g transform="translate(308, 140)">
    <rect x="0" y="10" width="50" height="34" rx="5" fill="none" stroke="#F2C811" stroke-width="1.5"/>
    <circle cx="25" cy="27" r="11" fill="none" stroke="#F2C811" stroke-width="1.5"/>
    <circle cx="25" cy="27" r="5" fill="#F2C811" opacity="0.3"/>
    <rect x="16" y="4" width="18" height="10" rx="3" fill="none" stroke="#F2C811" stroke-width="1.2"/>
  </g>
  <text x="338" y="205" font-family="'Segoe UI', Arial, sans-serif" font-size="12" fill="#8b949e" text-anchor="middle">Captures your</text>
  <text x="338" y="221" font-family="'Segoe UI', Arial, sans-serif" font-size="12" fill="#F2C811" text-anchor="middle" font-weight="600">PBIR changes</text>

  <!-- Arrow 2 > 3 -->
  <line x1="423" y1="155" x2="446" y2="155" stroke="#F2C811" stroke-width="2.5"/>
  <polygon points="451,155 443,149 443,161" fill="#F2C811"/>

  <!-- Step 3: Desktop Saves -->
  <rect x="456" y="75" width="160" height="165" rx="10" fill="#161b22" stroke="#06d6a0" stroke-width="1.5"/>
  <circle cx="536" cy="92" r="14" fill="#06d6a0"/>
  <text x="536" y="98" font-family="'Segoe UI', Arial, sans-serif" font-size="15" fill="#0d1117" text-anchor="middle" font-weight="bold">3</text>
  <text x="536" y="126" font-family="'Segoe UI', Arial, sans-serif" font-size="14" fill="#06d6a0" text-anchor="middle" font-weight="bold">Desktop Saves</text>
  <!-- Save icon with checkmark -->
  <g transform="translate(508, 140)">
    <rect x="0" y="0" width="44" height="44" rx="5" fill="none" stroke="#06d6a0" stroke-width="1.5"/>
    <rect x="10" y="0" width="24" height="16" rx="3" fill="none" stroke="#06d6a0" stroke-width="1" stroke-opacity="0.5"/>
    <rect x="7" y="26" width="30" height="16" rx="3" fill="#06d6a0" opacity="0.12"/>
    <!-- Large checkmark -->
    <polyline points="14,36 20,42 32,28" fill="none" stroke="#06d6a0" stroke-width="3" stroke-linecap="round" stroke-linejoin="round"/>
  </g>
  <text x="536" y="205" font-family="'Segoe UI', Arial, sans-serif" font-size="12" fill="#8b949e" text-anchor="middle">Preserves your</text>
  <text x="536" y="221" font-family="'Segoe UI', Arial, sans-serif" font-size="12" fill="#06d6a0" text-anchor="middle" font-weight="600">modeling work</text>

  <!-- Arrow 3 > 4 -->
  <line x1="621" y1="155" x2="644" y2="155" stroke="#F2C811" stroke-width="2.5"/>
  <polygon points="649,155 641,149 641,161" fill="#F2C811"/>

  <!-- Step 4: Re-apply + Reopen -->
  <rect x="654" y="75" width="160" height="165" rx="10" fill="#161b22" stroke="#d97757" stroke-width="1.5"/>
  <circle cx="734" cy="92" r="14" fill="#d97757"/>
  <text x="734" y="98" font-family="'Segoe UI', Arial, sans-serif" font-size="15" fill="#0d1117" text-anchor="middle" font-weight="bold">4</text>
  <text x="734" y="126" font-family="'Segoe UI', Arial, sans-serif" font-size="14" fill="#d97757" text-anchor="middle" font-weight="bold">Reopen</text>
  <!-- Refresh/cycle icon -->
  <g transform="translate(706, 138)">
    <!-- Outer glow ring -->
    <circle cx="28" cy="26" r="24" fill="none" stroke="#d97757" stroke-width="0.5" stroke-opacity="0.15"/>

    <!-- Top arc (orange): closing Desktop -->
    <path d="M 28,2 A 26,26 0 0,1 52,30" fill="none" stroke="#d97757" stroke-width="3" stroke-linecap="round"/>
    <!-- Top arrow head -->
    <polygon points="52,30 46,24 48,34" fill="#d97757"/>

    <!-- Bottom arc (green): reopening Desktop -->
    <path d="M 28,50 A 26,26 0 0,1 4,22" fill="none" stroke="#06d6a0" stroke-width="3" stroke-linecap="round"/>
    <!-- Bottom arrow head -->
    <polygon points="4,22 10,28 8,18" fill="#06d6a0"/>

    <!-- Center PBI mini icon -->
    <rect x="18" y="14" width="8" height="22" rx="2" fill="#F2C811" opacity="0.6"/>
    <rect x="27" y="20" width="8" height="16" rx="2" fill="#F2C811" opacity="0.8"/>
    <rect x="36" y="25" width="8" height="11" rx="2" fill="#F2C811"/>
  </g>
  <text x="734" y="205" font-family="'Segoe UI', Arial, sans-serif" font-size="12" fill="#8b949e" text-anchor="middle">PBIR restored,</text>
  <text x="734" y="221" font-family="'Segoe UI', Arial, sans-serif" font-size="12" fill="#d97757" text-anchor="middle" font-weight="600">Desktop reopens</text>

  <!-- ============ Bottom comparison ============ -->
  <rect x="60" y="258" width="730" height="1" fill="url(#sync-glow)"/>

  <!-- Without -->
  <rect x="60" y="275" width="350" height="85" rx="8" fill="#161b22" stroke="#ff6b6b" stroke-width="1" stroke-opacity="0.5"/>
  <text x="235" y="300" font-family="'Segoe UI', Arial, sans-serif" font-size="15" fill="#ff6b6b" text-anchor="middle" font-weight="bold">Without Auto-Sync</text>
  <text x="90" y="324" font-family="'Segoe UI', Arial, sans-serif" font-size="15" fill="#ff6b6b">&#x2717;</text>
  <text x="110" y="324" font-family="'Segoe UI', Arial, sans-serif" font-size="13" fill="#8b949e">Close Desktop manually every time</text>
  <text x="90" y="346" font-family="'Segoe UI', Arial, sans-serif" font-size="15" fill="#ff6b6b">&#x2717;</text>
  <text x="110" y="346" font-family="'Segoe UI', Arial, sans-serif" font-size="13" fill="#8b949e">Risk losing unsaved modeling work</text>

  <!-- With -->
  <rect x="440" y="275" width="350" height="85" rx="8" fill="#161b22" stroke="#06d6a0" stroke-width="1" stroke-opacity="0.5"/>
  <text x="615" y="300" font-family="'Segoe UI', Arial, sans-serif" font-size="15" fill="#06d6a0" text-anchor="middle" font-weight="bold">With Auto-Sync</text>
  <text x="470" y="324" font-family="'Segoe UI', Arial, sans-serif" font-size="15" fill="#06d6a0">&#x2713;</text>
  <text x="490" y="324" font-family="'Segoe UI', Arial, sans-serif" font-size="13" fill="#e6edf3">Desktop reopens automatically</text>
  <text x="470" y="346" font-family="'Segoe UI', Arial, sans-serif" font-size="15" fill="#06d6a0">&#x2713;</text>
  <text x="490" y="346" font-family="'Segoe UI', Arial, sans-serif" font-size="13" fill="#e6edf3">All work preserved -- both layers</text>
</svg>
