<svg xmlns="http://www.w3.org/2000/svg" width="850" height="380" viewBox="0 0 850 380">

  <!-- 1. BACKGROUND -->
  <rect width="100%" height="100%" fill="#0d1117" rx="8"/>

  <!-- 2. TERMINAL CHROME BAR -->
  <rect x="0" y="0" width="850" height="46" rx="8" fill="#161b22"/>
  <rect x="0" y="30" width="850" height="16" fill="#161b22"/>
  <circle cx="28" cy="23" r="6" fill="#ff5f57"/>
  <circle cx="48" cy="23" r="6" fill="#febc2e"/>
  <circle cx="68" cy="23" r="6" fill="#28c840"/>
  <text x="425" y="28" font-family="'Courier New', Courier, monospace" font-size="12" fill="#6e7681" text-anchor="middle">pbi-cli  --  command showcase</text>

  <!-- 3. VERTICAL COLUMN DIVIDER -->
  <line x1="425" y1="46" x2="425" y2="295" stroke="#30363d" stroke-width="1"/>

  <!-- 4. COLUMN HEADERS -->
  <rect x="35" y="52" width="100" height="21" rx="10" fill="#58a6ff" fill-opacity="0.12" stroke="#58a6ff" stroke-width="1"/>
  <text x="85" y="66" font-family="'Segoe UI', Arial, sans-serif" font-size="11" fill="#58a6ff" text-anchor="middle" font-weight="bold">MODELING</text>
  <rect x="440" y="52" width="105" height="21" rx="10" fill="#06d6a0" fill-opacity="0.12" stroke="#06d6a0" stroke-width="1"/>
  <text x="492" y="66" font-family="'Segoe UI', Arial, sans-serif" font-size="11" fill="#06d6a0" text-anchor="middle" font-weight="bold">REPORTING</text>

  <!-- 5. ROW BACKGROUND HIGHLIGHTS -->
  <rect x="0" y="84" width="425" height="33" fill="#58a6ff" fill-opacity="0.02"/>
  <rect x="425" y="84" width="425" height="33" fill="#58a6ff" fill-opacity="0.02"/>
  <rect x="0" y="154" width="425" height="33" fill="#58a6ff" fill-opacity="0.02"/>
  <rect x="425" y="154" width="425" height="33" fill="#58a6ff" fill-opacity="0.02"/>
  <rect x="0" y="224" width="425" height="33" fill="#58a6ff" fill-opacity="0.02"/>
  <rect x="425" y="224" width="425" height="33" fill="#58a6ff" fill-opacity="0.02"/>

  <!-- ===== LEFT COLUMN COMMANDS ===== -->

  <!-- Row 1 y=102: model export -->
  <text x="38" y="102" font-family="'Courier New', Courier, monospace" font-size="12" fill="#6e7681">$</text>
  <text x="50" y="102" font-family="'Courier New', Courier, monospace" font-size="12" fill="#F2C811">pbi-cli</text>
  <text x="98" y="102" font-family="'Courier New', Courier, monospace" font-size="12" fill="#a5d6ff"> model export</text>

  <!-- Row 2 y=137: dax run -->
  <text x="38" y="137" font-family="'Courier New', Courier, monospace" font-size="12" fill="#6e7681">$</text>
  <text x="50" y="137" font-family="'Courier New', Courier, monospace" font-size="12" fill="#F2C811">pbi-cli</text>
  <text x="98" y="137" font-family="'Courier New', Courier, monospace" font-size="12" fill="#a5d6ff"> dax run</text>

  <!-- Row 3 y=172: dax add-measure -->
  <text x="38" y="172" font-family="'Courier New', Courier, monospace" font-size="12" fill="#6e7681">$</text>
  <text x="50" y="172" font-family="'Courier New', Courier, monospace" font-size="12" fill="#F2C811">pbi-cli</text>
  <text x="98" y="172" font-family="'Courier New', Courier, monospace" font-size="12" fill="#a5d6ff"> dax add-measure</text>

  <!-- Row 4 y=207: table list -->
  <text x="38" y="207" font-family="'Courier New', Courier, monospace" font-size="12" fill="#6e7681">$</text>
  <text x="50" y="207" font-family="'Courier New', Courier, monospace" font-size="12" fill="#F2C811">pbi-cli</text>
  <text x="98" y="207" font-family="'Courier New', Courier, monospace" font-size="12" fill="#a5d6ff"> table list</text>

  <!-- Row 5 y=242: relationship list -->
  <text x="38" y="242" font-family="'Courier New', Courier, monospace" font-size="12" fill="#6e7681">$</text>
  <text x="50" y="242" font-family="'Courier New', Courier, monospace" font-size="12" fill="#F2C811">pbi-cli</text>
  <text x="98" y="242" font-family="'Courier New', Courier, monospace" font-size="12" fill="#a5d6ff"> relationship list</text>

  <!-- Row 6 y=277: model import -->
  <text x="38" y="277" font-family="'Courier New', Courier, monospace" font-size="12" fill="#6e7681">$</text>
  <text x="50" y="277" font-family="'Courier New', Courier, monospace" font-size="12" fill="#F2C811">pbi-cli</text>
  <text x="98" y="277" font-family="'Courier New', Courier, monospace" font-size="12" fill="#a5d6ff"> model import</text>

  <!-- ===== RIGHT COLUMN COMMANDS ===== -->

  <!-- Row 1 y=102: report add-visual -->
  <text x="443" y="102" font-family="'Courier New', Courier, monospace" font-size="12" fill="#6e7681">$</text>
  <text x="455" y="102" font-family="'Courier New', Courier, monospace" font-size="12" fill="#F2C811">pbi-cli</text>
  <text x="503" y="102" font-family="'Courier New', Courier, monospace" font-size="12" fill="#7ee787"> report add-visual</text>

  <!-- Row 2 y=137: report bind-data -->
  <text x="443" y="137" font-family="'Courier New', Courier, monospace" font-size="12" fill="#6e7681">$</text>
  <text x="455" y="137" font-family="'Courier New', Courier, monospace" font-size="12" fill="#F2C811">pbi-cli</text>
  <text x="503" y="137" font-family="'Courier New', Courier, monospace" font-size="12" fill="#7ee787"> report bind-data</text>

  <!-- Row 3 y=172: report add-page -->
  <text x="443" y="172" font-family="'Courier New', Courier, monospace" font-size="12" fill="#6e7681">$</text>
  <text x="455" y="172" font-family="'Courier New', Courier, monospace" font-size="12" fill="#F2C811">pbi-cli</text>
  <text x="503" y="172" font-family="'Courier New', Courier, monospace" font-size="12" fill="#7ee787"> report add-page</text>

  <!-- Row 4 y=207: report list-visuals -->
  <text x="443" y="207" font-family="'Courier New', Courier, monospace" font-size="12" fill="#6e7681">$</text>
  <text x="455" y="207" font-family="'Courier New', Courier, monospace" font-size="12" fill="#F2C811">pbi-cli</text>
  <text x="503" y="207" font-family="'Courier New', Courier, monospace" font-size="12" fill="#7ee787"> report list-visuals</text>

  <!-- Row 5 y=242: report update-theme -->
  <text x="443" y="242" font-family="'Courier New', Courier, monospace" font-size="12" fill="#6e7681">$</text>
  <text x="455" y="242" font-family="'Courier New', Courier, monospace" font-size="12" fill="#F2C811">pbi-cli</text>
  <text x="503" y="242" font-family="'Courier New', Courier, monospace" font-size="12" fill="#7ee787"> report update-theme</text>

  <!-- Row 6 y=277: report export -->
  <text x="443" y="277" font-family="'Courier New', Courier, monospace" font-size="12" fill="#6e7681">$</text>
  <text x="455" y="277" font-family="'Courier New', Courier, monospace" font-size="12" fill="#F2C811">pbi-cli</text>
  <text x="503" y="277" font-family="'Courier New', Courier, monospace" font-size="12" fill="#7ee787"> report export</text>

  <!-- ===== LEFT COLUMN VISUAL ICONS (replacing text badges) ===== -->

  <!-- Row 1: model export → file with up-arrow (TMDL export) -->
  <g transform="translate(373, 91)">
    <rect x="0" y="2" width="16" height="14" rx="1.5" fill="#58a6ff" fill-opacity="0.12" stroke="#58a6ff" stroke-width="1"/>
    <line x1="8" y1="11" x2="8" y2="5" stroke="#58a6ff" stroke-width="1.5" stroke-linecap="round"/>
    <polygon points="8,3 5,7 11,7" fill="#58a6ff"/>
    <line x1="3" y1="13" x2="13" y2="13" stroke="#58a6ff" stroke-width="1" opacity="0.5"/>
  </g>

  <!-- Row 2: dax run → play triangle (DAX execute) -->
  <g transform="translate(375, 126)">
    <circle cx="8" cy="8" r="8" fill="#F2C811" fill-opacity="0.12" stroke="#F2C811" stroke-width="1"/>
    <polygon points="5,4 5,12 13,8" fill="#F2C811" fill-opacity="0.9"/>
  </g>

  <!-- Row 3: dax add-measure → sparkle / AI star -->
  <g transform="translate(377, 161)">
    <path d="M8,0 L9.5,6 L16,8 L9.5,10 L8,16 L6.5,10 L0,8 L6.5,6 Z" fill="#c084fc" fill-opacity="0.85"/>
  </g>

  <!-- Row 4: table list → rows/grid icon -->
  <g transform="translate(373, 196)">
    <rect x="0" y="0" width="16" height="3" rx="1" fill="#8b949e" fill-opacity="0.8"/>
    <rect x="0" y="5" width="16" height="3" rx="1" fill="#8b949e" fill-opacity="0.6"/>
    <rect x="0" y="10" width="16" height="3" rx="1" fill="#8b949e" fill-opacity="0.4"/>
    <rect x="0" y="15" width="16" height="3" rx="1" fill="#8b949e" fill-opacity="0.25"/>
  </g>

  <!-- Row 5: relationship list → two nodes with edge -->
  <g transform="translate(373, 231)">
    <circle cx="4" cy="8" r="4" fill="none" stroke="#8b949e" stroke-width="1.5"/>
    <circle cx="16" cy="4" r="4" fill="none" stroke="#8b949e" stroke-width="1.5"/>
    <line x1="4" y1="4" x2="16" y2="4" stroke="#8b949e" stroke-width="1.5"/>
    <circle cx="4" cy="4" r="1.5" fill="#8b949e"/>
    <circle cx="16" cy="4" r="1.5" fill="#8b949e"/>
  </g>

  <!-- Row 6: model import → file with down-arrow -->
  <g transform="translate(373, 266)">
    <rect x="0" y="2" width="16" height="14" rx="1.5" fill="#58a6ff" fill-opacity="0.12" stroke="#58a6ff" stroke-width="1"/>
    <line x1="8" y1="5" x2="8" y2="11" stroke="#58a6ff" stroke-width="1.5" stroke-linecap="round"/>
    <polygon points="8,14 5,9 11,9" fill="#58a6ff"/>
    <line x1="3" y1="13" x2="13" y2="13" stroke="#58a6ff" stroke-width="1" opacity="0.5"/>
  </g>

  <!-- ===== RIGHT COLUMN VISUAL ICONS (replacing text badges) ===== -->

  <!-- Row 1: report add-visual → small bar chart in frame -->
  <g transform="translate(796, 91)">
    <rect x="0" y="0" width="20" height="16" rx="2" fill="none" stroke="#06d6a0" stroke-width="1"/>
    <rect x="2" y="8" width="3" height="6" rx="0.5" fill="#06d6a0" fill-opacity="0.6"/>
    <rect x="7" y="5" width="3" height="9" rx="0.5" fill="#06d6a0" fill-opacity="0.75"/>
    <rect x="12" y="2" width="3" height="12" rx="0.5" fill="#06d6a0" fill-opacity="0.9"/>
    <rect x="17" y="4" width="2" height="10" rx="0.5" fill="#06d6a0" fill-opacity="0.8"/>
  </g>

  <!-- Row 2: report bind-data → link chain -->
  <g transform="translate(796, 126)">
    <circle cx="5" cy="8" r="5" fill="none" stroke="#06d6a0" stroke-width="1.5"/>
    <circle cx="15" cy="8" r="5" fill="none" stroke="#06d6a0" stroke-width="1.5"/>
    <rect x="7" y="5" width="6" height="6" rx="2" fill="#06d6a0" fill-opacity="0.35" stroke="#06d6a0" stroke-width="1"/>
  </g>

  <!-- Row 3: report add-page → page with plus -->
  <g transform="translate(796, 161)">
    <rect x="0" y="0" width="14" height="18" rx="2" fill="none" stroke="#06d6a0" stroke-width="1.5"/>
    <line x1="14" y1="8" x2="20" y2="8" stroke="#06d6a0" stroke-width="1.5" stroke-linecap="round"/>
    <line x1="17" y1="5" x2="17" y2="11" stroke="#06d6a0" stroke-width="1.5" stroke-linecap="round"/>
    <line x1="3" y1="6" x2="11" y2="6" stroke="#06d6a0" stroke-width="1" opacity="0.4"/>
    <line x1="3" y1="9" x2="11" y2="9" stroke="#06d6a0" stroke-width="1" opacity="0.4"/>
    <line x1="3" y1="12" x2="9" y2="12" stroke="#06d6a0" stroke-width="1" opacity="0.4"/>
  </g>

  <!-- Row 4: report list-visuals → eye / view icon -->
  <g transform="translate(796, 196)">
    <path d="M0,8 C3,2 17,2 20,8 C17,14 3,14 0,8 Z" fill="none" stroke="#8b949e" stroke-width="1.5"/>
    <circle cx="10" cy="8" r="3.5" fill="none" stroke="#8b949e" stroke-width="1.5"/>
    <circle cx="10" cy="8" r="1.5" fill="#8b949e" fill-opacity="0.7"/>
  </g>

  <!-- Row 5: report update-theme → palette circle with color dots -->
  <g transform="translate(796, 230)">
    <circle cx="10" cy="10" r="9" fill="none" stroke="#FF9500" stroke-width="1.5"/>
    <circle cx="10" cy="12" r="3" fill="#0d1117" stroke="#FF9500" stroke-width="1"/>
    <circle cx="5" cy="5" r="2.5" fill="#06d6a0" fill-opacity="0.9"/>
    <circle cx="10" cy="2" r="2.5" fill="#F2C811" fill-opacity="0.9"/>
    <circle cx="15" cy="5" r="2.5" fill="#58a6ff" fill-opacity="0.9"/>
    <circle cx="17" cy="11" r="2.5" fill="#c084fc" fill-opacity="0.9"/>
  </g>

  <!-- Row 6: report export → box with up-arrow -->
  <g transform="translate(796, 266)">
    <rect x="0" y="6" width="20" height="12" rx="2" fill="none" stroke="#58a6ff" stroke-width="1.5"/>
    <line x1="10" y1="12" x2="10" y2="2" stroke="#58a6ff" stroke-width="1.5" stroke-linecap="round"/>
    <polygon points="10,0 6,5 14,5" fill="#58a6ff"/>
    <line x1="4" y1="10" x2="4" y2="18" stroke="#58a6ff" stroke-width="1" opacity="0.3"/>
    <line x1="16" y1="10" x2="16" y2="18" stroke="#58a6ff" stroke-width="1" opacity="0.3"/>
  </g>

  <!-- 7. HORIZONTAL SEPARATOR ABOVE FOOTER -->
  <line x1="0" y1="295" x2="850" y2="295" stroke="#30363d" stroke-width="1"/>

  <!-- 8. FOOTER BAR -->
  <rect x="0" y="295" width="850" height="85" fill="#161b22"/>

  <!-- Footer stat badges with visual icons -->

  <!-- Badge 1: 30+ commands -->
  <rect x="153" y="318" width="120" height="36" rx="14" fill="#58a6ff" fill-opacity="0.1" stroke="#58a6ff" stroke-width="1"/>
  <!-- Terminal icon -->
  <g transform="translate(163, 327)">
    <rect x="0" y="0" width="16" height="12" rx="2" fill="#58a6ff" fill-opacity="0.15" stroke="#58a6ff" stroke-width="1"/>
    <text x="2" y="9" font-family="'Courier New', monospace" font-size="7" fill="#58a6ff">$_</text>
  </g>
  <text x="225" y="338" font-family="'Segoe UI', Arial, sans-serif" font-size="12" fill="#58a6ff" text-anchor="middle" font-weight="bold">30+ commands</text>

  <!-- Badge 2: Both layers with icon -->
  <rect x="365" y="318" width="120" height="36" rx="14" fill="#F2C811" fill-opacity="0.1" stroke="#F2C811" stroke-width="1"/>
  <!-- Stack icon -->
  <g transform="translate(375, 327)">
    <rect x="0" y="0" width="16" height="4" rx="1" fill="#58a6ff" fill-opacity="0.7"/>
    <rect x="0" y="6" width="16" height="4" rx="1" fill="#06d6a0" fill-opacity="0.7"/>
  </g>
  <text x="425" y="338" font-family="'Segoe UI', Arial, sans-serif" font-size="12" fill="#F2C811" text-anchor="middle" font-weight="bold">Both layers</text>

  <!-- Badge 3: AI-native with sparkle icon -->
  <rect x="577" y="318" width="120" height="36" rx="14" fill="#c084fc" fill-opacity="0.1" stroke="#c084fc" stroke-width="1"/>
  <!-- Sparkle icon -->
  <g transform="translate(584, 326)">
    <path d="M6,0 L7.2,4.8 L12,6 L7.2,7.2 L6,12 L4.8,7.2 L0,6 L4.8,4.8 Z" fill="#c084fc" fill-opacity="0.85"/>
  </g>
  <text x="637" y="338" font-family="'Segoe UI', Arial, sans-serif" font-size="12" fill="#c084fc" text-anchor="middle" font-weight="bold">AI-native</text>

  <!-- Footer subtext -->
  <text x="425" y="368" font-family="'Segoe UI', Arial, sans-serif" font-size="10" fill="#6e7681" text-anchor="middle">pipx install pbi-cli-tool</text>

</svg>
