<svg xmlns="http://www.w3.org/2000/svg" width="850" height="340" viewBox="0 0 850 340">
  <defs>
    <linearGradient id="areaFill" x1="0" y1="0" x2="0" y2="1">
      <stop offset="0%" stop-color="#58a6ff" stop-opacity="0.45"/>
      <stop offset="100%" stop-color="#58a6ff" stop-opacity="0"/>
    </linearGradient>
  </defs>

  <!-- Background -->
  <rect width="100%" height="100%" fill="#0d1117" rx="8"/>

  <!-- Title -->
  <text x="425" y="33" font-family="'Segoe UI', Arial, sans-serif" font-size="17" fill="#F2C811" text-anchor="middle" font-weight="bold">pbi-cli Downloads Over Time</text>
  <text x="425" y="52" font-family="'Segoe UI', Arial, sans-serif" font-size="11" fill="#8b949e" text-anchor="middle">Cumulative installs from PyPI • mirrors excluded • source: pypistats.org</text>

  <!-- Gridlines & y-labels -->
  <line x1="70" y1="280.0" x2="810" y2="280.0" stroke="#21262d" stroke-width="1" stroke-dasharray="2,3"/><line x1="70" y1="239.6" x2="810" y2="239.6" stroke="#21262d" stroke-width="1" stroke-dasharray="2,3"/><line x1="70" y1="199.2" x2="810" y2="199.2" stroke="#21262d" stroke-width="1" stroke-dasharray="2,3"/><line x1="70" y1="158.8" x2="810" y2="158.8" stroke="#21262d" stroke-width="1" stroke-dasharray="2,3"/><line x1="70" y1="118.4" x2="810" y2="118.4" stroke="#21262d" stroke-width="1" stroke-dasharray="2,3"/><line x1="70" y1="78.0" x2="810" y2="78.0" stroke="#21262d" stroke-width="1" stroke-dasharray="2,3"/>
  <text x="62" y="284.0" font-family="'Segoe UI', Arial, sans-serif" font-size="10" fill="#8b949e" text-anchor="end">0</text><text x="62" y="243.6" font-family="'Segoe UI', Arial, sans-serif" font-size="10" fill="#8b949e" text-anchor="end">1,000</text><text x="62" y="203.2" font-family="'Segoe UI', Arial, sans-serif" font-size="10" fill="#8b949e" text-anchor="end">2,000</text><text x="62" y="162.8" font-family="'Segoe UI', Arial, sans-serif" font-size="10" fill="#8b949e" text-anchor="end">3,000</text><text x="62" y="122.4" font-family="'Segoe UI', Arial, sans-serif" font-size="10" fill="#8b949e" text-anchor="end">4,000</text><text x="62" y="82.0" font-family="'Segoe UI', Arial, sans-serif" font-size="10" fill="#8b949e" text-anchor="end">5,000</text>

  <!-- Area fill -->
  <path d="M 70.00,280 L 70.00,255.48 L 103.64,244.77 L 137.27,243.48 L 170.91,243.24 L 204.55,241.90 L 238.18,241.22 L 271.82,239.92 L 305.45,236.81 L 339.09,230.35 L 372.73,226.75 L 406.36,215.04 L 440.00,206.84 L 473.64,182.51 L 507.27,172.66 L 540.91,166.76 L 574.55,160.94 L 608.18,159.45 L 641.82,155.89 L 675.45,150.28 L 709.09,141.15 L 742.73,137.87 L 776.36,133.11 L 810.00,128.38 L 810.00,280 Z" fill="url(#areaFill)"/>

  <!-- Line -->
  <path d="M 70.00,255.48 L 103.64,244.77 L 137.27,243.48 L 170.91,243.24 L 204.55,241.90 L 238.18,241.22 L 271.82,239.92 L 305.45,236.81 L 339.09,230.35 L 372.73,226.75 L 406.36,215.04 L 440.00,206.84 L 473.64,182.51 L 507.27,172.66 L 540.91,166.76 L 574.55,160.94 L 608.18,159.45 L 641.82,155.89 L 675.45,150.28 L 709.09,141.15 L 742.73,137.87 L 776.36,133.11 L 810.00,128.38" fill="none" stroke="#58a6ff" stroke-width="2.5" stroke-linejoin="round" stroke-linecap="round"/>

  <!-- Data points -->
  <circle cx="70.00" cy="255.48" r="2.5" fill="#58a6ff"/><circle cx="103.64" cy="244.77" r="2.5" fill="#58a6ff"/><circle cx="137.27" cy="243.48" r="2.5" fill="#58a6ff"/><circle cx="170.91" cy="243.24" r="2.5" fill="#58a6ff"/><circle cx="204.55" cy="241.90" r="2.5" fill="#58a6ff"/><circle cx="238.18" cy="241.22" r="2.5" fill="#58a6ff"/><circle cx="271.82" cy="239.92" r="2.5" fill="#58a6ff"/><circle cx="305.45" cy="236.81" r="2.5" fill="#58a6ff"/><circle cx="339.09" cy="230.35" r="2.5" fill="#58a6ff"/><circle cx="372.73" cy="226.75" r="2.5" fill="#58a6ff"/><circle cx="406.36" cy="215.04" r="2.5" fill="#58a6ff"/><circle cx="440.00" cy="206.84" r="2.5" fill="#58a6ff"/><circle cx="473.64" cy="182.51" r="2.5" fill="#58a6ff"/><circle cx="507.27" cy="172.66" r="2.5" fill="#58a6ff"/><circle cx="540.91" cy="166.76" r="2.5" fill="#58a6ff"/><circle cx="574.55" cy="160.94" r="2.5" fill="#58a6ff"/><circle cx="608.18" cy="159.45" r="2.5" fill="#58a6ff"/><circle cx="641.82" cy="155.89" r="2.5" fill="#58a6ff"/><circle cx="675.45" cy="150.28" r="2.5" fill="#58a6ff"/><circle cx="709.09" cy="141.15" r="2.5" fill="#58a6ff"/><circle cx="742.73" cy="137.87" r="2.5" fill="#58a6ff"/><circle cx="776.36" cy="133.11" r="2.5" fill="#58a6ff"/><circle cx="810.00" cy="128.38" r="4" fill="#F2C811"/>

  <!-- Last-value callout -->
  <rect x="720.0" y="100.4" width="82" height="24" rx="4" fill="#0d1a2a" stroke="#F2C811" stroke-width="1"/>
  <text x="761.0" y="116.4" font-family="'Segoe UI', Arial, sans-serif" font-size="12" fill="#F2C811" text-anchor="middle" font-weight="bold">3,753 total</text>

  <!-- X-axis labels -->
  <text x="70.0" y="298" font-family="'Segoe UI', Arial, sans-serif" font-size="10" fill="#8b949e" text-anchor="middle">Mar 26</text><text x="238.2" y="298" font-family="'Segoe UI', Arial, sans-serif" font-size="10" fill="#8b949e" text-anchor="middle">Mar 31</text><text x="440.0" y="298" font-family="'Segoe UI', Arial, sans-serif" font-size="10" fill="#8b949e" text-anchor="middle">Apr 06</text><text x="641.8" y="298" font-family="'Segoe UI', Arial, sans-serif" font-size="10" fill="#8b949e" text-anchor="middle">Apr 12</text><text x="810.0" y="298" font-family="'Segoe UI', Arial, sans-serif" font-size="10" fill="#8b949e" text-anchor="middle">Apr 17</text>

  <!-- Footer: date range -->
  <text x="70" y="328" font-family="'Segoe UI', Arial, sans-serif" font-size="10" fill="#8b949e">Mar 26, 2026 → Apr 17, 2026</text>
  <text x="810" y="328" font-family="'Segoe UI', Arial, sans-serif" font-size="10" fill="#8b949e" text-anchor="end">23 days of data</text>
</svg>
