<svg xmlns="http://www.w3.org/2000/svg" width="850" height="340" viewBox="0 0 850 340">
  <defs>
    <linearGradient id="areaFill" x1="0" y1="0" x2="0" y2="1">
      <stop offset="0%" stop-color="#58a6ff" stop-opacity="0.45"/>
      <stop offset="100%" stop-color="#58a6ff" stop-opacity="0"/>
    </linearGradient>
  </defs>

  <!-- Background -->
  <rect width="100%" height="100%" fill="#0d1117" rx="8"/>

  <!-- Title -->
  <text x="425" y="33" font-family="'Segoe UI', Arial, sans-serif" font-size="17" fill="#F2C811" text-anchor="middle" font-weight="bold">pbi-cli Downloads Over Time</text>
  <text x="425" y="52" font-family="'Segoe UI', Arial, sans-serif" font-size="11" fill="#8b949e" text-anchor="middle">Cumulative installs from PyPI • mirrors excluded • source: pypistats.org</text>

  <!-- Gridlines & y-labels -->
  <line x1="70" y1="280.0" x2="810" y2="280.0" stroke="#21262d" stroke-width="1" stroke-dasharray="2,3"/><line x1="70" y1="239.6" x2="810" y2="239.6" stroke="#21262d" stroke-width="1" stroke-dasharray="2,3"/><line x1="70" y1="199.2" x2="810" y2="199.2" stroke="#21262d" stroke-width="1" stroke-dasharray="2,3"/><line x1="70" y1="158.8" x2="810" y2="158.8" stroke="#21262d" stroke-width="1" stroke-dasharray="2,3"/><line x1="70" y1="118.4" x2="810" y2="118.4" stroke="#21262d" stroke-width="1" stroke-dasharray="2,3"/><line x1="70" y1="78.0" x2="810" y2="78.0" stroke="#21262d" stroke-width="1" stroke-dasharray="2,3"/>
  <text x="62" y="284.0" font-family="'Segoe UI', Arial, sans-serif" font-size="10" fill="#8b949e" text-anchor="end">0</text><text x="62" y="243.6" font-family="'Segoe UI', Arial, sans-serif" font-size="10" fill="#8b949e" text-anchor="end">1,000</text><text x="62" y="203.2" font-family="'Segoe UI', Arial, sans-serif" font-size="10" fill="#8b949e" text-anchor="end">2,000</text><text x="62" y="162.8" font-family="'Segoe UI', Arial, sans-serif" font-size="10" fill="#8b949e" text-anchor="end">3,000</text><text x="62" y="122.4" font-family="'Segoe UI', Arial, sans-serif" font-size="10" fill="#8b949e" text-anchor="end">4,000</text><text x="62" y="82.0" font-family="'Segoe UI', Arial, sans-serif" font-size="10" fill="#8b949e" text-anchor="end">5,000</text>

  <!-- Area fill -->
  <path d="M 70.00,280 L 70.00,255.48 L 116.25,244.77 L 162.50,243.48 L 208.75,243.24 L 255.00,241.90 L 301.25,241.22 L 347.50,239.92 L 393.75,236.81 L 440.00,230.35 L 486.25,226.75 L 532.50,215.04 L 578.75,206.84 L 625.00,182.51 L 671.25,172.66 L 717.50,166.76 L 763.75,160.94 L 810.00,159.45 L 810.00,280 Z" fill="url(#areaFill)"/>

  <!-- Line -->
  <path d="M 70.00,255.48 L 116.25,244.77 L 162.50,243.48 L 208.75,243.24 L 255.00,241.90 L 301.25,241.22 L 347.50,239.92 L 393.75,236.81 L 440.00,230.35 L 486.25,226.75 L 532.50,215.04 L 578.75,206.84 L 625.00,182.51 L 671.25,172.66 L 717.50,166.76 L 763.75,160.94 L 810.00,159.45" fill="none" stroke="#58a6ff" stroke-width="2.5" stroke-linejoin="round" stroke-linecap="round"/>

  <!-- Data points -->
  <circle cx="70.00" cy="255.48" r="2.5" fill="#58a6ff"/><circle cx="116.25" cy="244.77" r="2.5" fill="#58a6ff"/><circle cx="162.50" cy="243.48" r="2.5" fill="#58a6ff"/><circle cx="208.75" cy="243.24" r="2.5" fill="#58a6ff"/><circle cx="255.00" cy="241.90" r="2.5" fill="#58a6ff"/><circle cx="301.25" cy="241.22" r="2.5" fill="#58a6ff"/><circle cx="347.50" cy="239.92" r="2.5" fill="#58a6ff"/><circle cx="393.75" cy="236.81" r="2.5" fill="#58a6ff"/><circle cx="440.00" cy="230.35" r="2.5" fill="#58a6ff"/><circle cx="486.25" cy="226.75" r="2.5" fill="#58a6ff"/><circle cx="532.50" cy="215.04" r="2.5" fill="#58a6ff"/><circle cx="578.75" cy="206.84" r="2.5" fill="#58a6ff"/><circle cx="625.00" cy="182.51" r="2.5" fill="#58a6ff"/><circle cx="671.25" cy="172.66" r="2.5" fill="#58a6ff"/><circle cx="717.50" cy="166.76" r="2.5" fill="#58a6ff"/><circle cx="763.75" cy="160.94" r="2.5" fill="#58a6ff"/><circle cx="810.00" cy="159.45" r="4" fill="#F2C811"/>

  <!-- Last-value callout -->
  <rect x="720.0" y="131.4" width="82" height="24" rx="4" fill="#0d1a2a" stroke="#F2C811" stroke-width="1"/>
  <text x="761.0" y="147.4" font-family="'Segoe UI', Arial, sans-serif" font-size="12" fill="#F2C811" text-anchor="middle" font-weight="bold">2,984 total</text>

  <!-- X-axis labels -->
  <text x="70.0" y="298" font-family="'Segoe UI', Arial, sans-serif" font-size="10" fill="#8b949e" text-anchor="middle">Mar 26</text><text x="255.0" y="298" font-family="'Segoe UI', Arial, sans-serif" font-size="10" fill="#8b949e" text-anchor="middle">Mar 30</text><text x="440.0" y="298" font-family="'Segoe UI', Arial, sans-serif" font-size="10" fill="#8b949e" text-anchor="middle">Apr 03</text><text x="625.0" y="298" font-family="'Segoe UI', Arial, sans-serif" font-size="10" fill="#8b949e" text-anchor="middle">Apr 07</text><text x="810.0" y="298" font-family="'Segoe UI', Arial, sans-serif" font-size="10" fill="#8b949e" text-anchor="middle">Apr 11</text>

  <!-- Footer: date range -->
  <text x="70" y="328" font-family="'Segoe UI', Arial, sans-serif" font-size="10" fill="#8b949e">Mar 26, 2026 → Apr 11, 2026</text>
  <text x="810" y="328" font-family="'Segoe UI', Arial, sans-serif" font-size="10" fill="#8b949e" text-anchor="end">17 days of data</text>
</svg>
