<svg xmlns="http://www.w3.org/2000/svg" width="850" height="380" viewBox="0 0 850 380">
  <defs>
    <linearGradient id="dl-glow" x1="0%" y1="0%" x2="100%" y2="0%">
      <stop offset="0%" stop-color="#F2C811" stop-opacity="0"/>
      <stop offset="50%" stop-color="#F2C811" stop-opacity="0.15"/>
      <stop offset="100%" stop-color="#F2C811" stop-opacity="0"/>
    </linearGradient>
    <linearGradient id="dl-b1" x1="50%" y1="0%" x2="50%" y2="100%">
      <stop offset="0%" stop-color="#EBBB14"/>
      <stop offset="100%" stop-color="#B25400"/>
    </linearGradient>
    <linearGradient id="dl-b2" x1="50%" y1="0%" x2="50%" y2="100%">
      <stop offset="0%" stop-color="#F9E583"/>
      <stop offset="100%" stop-color="#DE9800"/>
    </linearGradient>
    <linearGradient id="dl-b3" x1="50%" y1="0%" x2="50%" y2="100%">
      <stop offset="0%" stop-color="#F9E68B"/>
      <stop offset="100%" stop-color="#F3CD32"/>
    </linearGradient>
  </defs>

  <rect width="100%" height="100%" fill="#0d1117" rx="8"/>

  <!-- Badge -->
  <rect x="285" y="12" width="280" height="28" rx="14" fill="#161b22" stroke="#F2C811" stroke-width="1.5"/>
  <text x="425" y="31" font-family="'Segoe UI', Arial, sans-serif" font-size="13" fill="#F2C811" text-anchor="middle" font-weight="bold">THE FIRST CLI FOR BOTH LAYERS</text>

  <!-- Main title -->
  <text x="425" y="72" font-family="'Segoe UI', Arial, sans-serif" font-size="24" fill="#e6edf3" text-anchor="middle" font-weight="bold">One CLI. Two Layers. Complete Control.</text>
  <text x="425" y="96" font-family="'Segoe UI', Arial, sans-serif" font-size="14" fill="#8b949e" text-anchor="middle">pbi-cli connects Claude Code to both your semantic model and your report design</text>

  <rect x="60" y="110" width="730" height="1" fill="url(#dl-glow)"/>

  <!-- ============ LEFT: Semantic Model Layer ============ -->
  <rect x="25" y="125" width="390" height="210" rx="10" fill="#161b22" stroke="#58a6ff" stroke-width="1.5"/>

  <!-- Layer header bar -->
  <rect x="25" y="125" width="390" height="38" rx="10" fill="#58a6ff" fill-opacity="0.1"/>
  <rect x="25" y="150" width="390" height="13" fill="#161b22"/>
  <text x="220" y="149" font-family="'Segoe UI', Arial, sans-serif" font-size="15" fill="#58a6ff" text-anchor="middle" font-weight="bold">Semantic Model Layer</text>

  <!-- Power BI logo -->
  <g transform="translate(50, 180)">
    <rect x="30" y="0" width="18" height="50" rx="3" fill="url(#dl-b1)"/>
    <rect x="15" y="14" width="18" height="36" rx="3" fill="url(#dl-b2)"/>
    <rect x="0" y="26" width="18" height="24" rx="3" fill="url(#dl-b3)"/>
  </g>

  <text x="130" y="195" font-family="'Segoe UI', Arial, sans-serif" font-size="14" fill="#58a6ff" font-weight="bold">Live .NET Connection</text>
  <text x="130" y="213" font-family="'Segoe UI', Arial, sans-serif" font-size="12" fill="#8b949e">Direct TOM interop via pythonnet</text>

  <!-- Commands with icons -->
  <circle cx="52" cy="247" r="3" fill="#58a6ff" opacity="0.6"/>
  <text x="64" y="251" font-family="'Courier New', Courier, monospace" font-size="12" fill="#e6edf3">pbi measure create</text>
  <circle cx="52" cy="269" r="3" fill="#58a6ff" opacity="0.6"/>
  <text x="64" y="273" font-family="'Courier New', Courier, monospace" font-size="12" fill="#e6edf3">pbi dax execute</text>
  <circle cx="52" cy="291" r="3" fill="#58a6ff" opacity="0.6"/>
  <text x="64" y="295" font-family="'Courier New', Courier, monospace" font-size="12" fill="#e6edf3">pbi database export-tmdl</text>
  <circle cx="52" cy="313" r="3" fill="#58a6ff" opacity="0.6"/>
  <text x="64" y="317" font-family="'Courier New', Courier, monospace" font-size="12" fill="#e6edf3">pbi relationship create</text>

  <!-- 7 skills badge -->
  <rect x="280" y="300" width="120" height="24" rx="12" fill="#58a6ff" fill-opacity="0.1" stroke="#58a6ff" stroke-width="1"/>
  <text x="340" y="316" font-family="'Segoe UI', Arial, sans-serif" font-size="11" fill="#58a6ff" text-anchor="middle" font-weight="600">7 Claude Skills</text>

  <!-- ============ RIGHT: Report Layer ============ -->
  <rect x="435" y="125" width="390" height="210" rx="10" fill="#161b22" stroke="#06d6a0" stroke-width="1.5"/>

  <!-- Layer header bar -->
  <rect x="435" y="125" width="390" height="38" rx="10" fill="#06d6a0" fill-opacity="0.1"/>
  <rect x="435" y="150" width="390" height="13" fill="#161b22"/>
  <text x="610" y="149" font-family="'Segoe UI', Arial, sans-serif" font-size="15" fill="#06d6a0" text-anchor="middle" font-weight="bold">Report Layer</text>

  <!-- NEW badge -->
  <rect x="765" y="133" width="44" height="20" rx="10" fill="#06d6a0"/>
  <text x="787" y="148" font-family="'Segoe UI', Arial, sans-serif" font-size="11" fill="#0d1117" text-anchor="middle" font-weight="bold">NEW</text>

  <!-- Report icon (page with chart) -->
  <g transform="translate(460, 178)">
    <rect x="0" y="0" width="38" height="48" rx="4" fill="none" stroke="#06d6a0" stroke-width="1.5"/>
    <line x1="6" y1="10" x2="32" y2="10" stroke="#06d6a0" stroke-width="0.8" stroke-opacity="0.3"/>
    <rect x="7" y="18" width="7" height="22" rx="1" fill="#06d6a0" opacity="0.4"/>
    <rect x="16" y="12" width="7" height="28" rx="1" fill="#06d6a0" opacity="0.6"/>
    <rect x="25" y="6" width="7" height="34" rx="1" fill="#06d6a0" opacity="0.8"/>
  </g>

  <text x="540" y="195" font-family="'Segoe UI', Arial, sans-serif" font-size="14" fill="#06d6a0" font-weight="bold">PBIR File Operations</text>
  <text x="540" y="213" font-family="'Segoe UI', Arial, sans-serif" font-size="12" fill="#8b949e">Read/write JSON, no connection</text>

  <!-- Commands with icons -->
  <circle cx="462" cy="247" r="3" fill="#06d6a0" opacity="0.6"/>
  <text x="474" y="251" font-family="'Courier New', Courier, monospace" font-size="12" fill="#e6edf3">pbi visual add --type bar</text>
  <circle cx="462" cy="269" r="3" fill="#06d6a0" opacity="0.6"/>
  <text x="474" y="273" font-family="'Courier New', Courier, monospace" font-size="12" fill="#e6edf3">pbi visual bind --category</text>
  <circle cx="462" cy="291" r="3" fill="#06d6a0" opacity="0.6"/>
  <text x="474" y="295" font-family="'Courier New', Courier, monospace" font-size="12" fill="#e6edf3">pbi filters add-topn --n 10</text>
  <circle cx="462" cy="313" r="3" fill="#06d6a0" opacity="0.6"/>
  <text x="474" y="317" font-family="'Courier New', Courier, monospace" font-size="12" fill="#e6edf3">pbi report set-theme</text>

  <!-- 5 skills badge -->
  <rect x="690" y="300" width="120" height="24" rx="12" fill="#06d6a0" fill-opacity="0.1" stroke="#06d6a0" stroke-width="1"/>
  <text x="750" y="316" font-family="'Segoe UI', Arial, sans-serif" font-size="11" fill="#06d6a0" text-anchor="middle" font-weight="600">5 Claude Skills</text>

  <!-- ============ Footer stats ============ -->
  <text x="425" y="362" font-family="'Segoe UI', Arial, sans-serif" font-size="13" fill="#8b949e" text-anchor="middle">27 command groups  |  125+ subcommands  |  32 visual types  |  12 Claude skills</text>
</svg>
