<svg xmlns="http://www.w3.org/2000/svg" width="850" height="420" viewBox="0 0 850 420">
  <rect width="100%" height="100%" fill="#0d1117" rx="8"/>

  <!-- Title -->
  <text x="425" y="32" font-family="'Segoe UI', Arial, sans-serif" font-size="18" fill="#F2C811" text-anchor="middle" font-weight="bold">100x More Efficient Than MCP</text>
  <text x="425" y="50" font-family="'Segoe UI', Arial, sans-serif" font-size="11" fill="#8b949e" text-anchor="middle">Token cost per operation: MCP tool call vs CLI command</text>

  <!-- Chart area -->
  <rect x="40" y="65" width="770" height="300" rx="8" fill="#161b22" stroke="#30363d" stroke-width="1"/>

  <!-- Row 1: connect -->
  <text x="120" y="100" font-family="'Segoe UI', Arial, sans-serif" font-size="12" fill="#c9d1d9" text-anchor="end">connect</text>
  <!-- MCP bar -->
  <rect x="135" y="86" width="600" height="14" rx="3" fill="#ff6b6b" fill-opacity="0.7"/>
  <text x="742" y="98" font-family="'Courier New', Courier, monospace" font-size="11" fill="#ff6b6b">4,800</text>
  <!-- CLI bar -->
  <rect x="135" y="104" width="4" height="14" rx="2" fill="#06d6a0"/>
  <text x="146" y="116" font-family="'Courier New', Courier, monospace" font-size="11" fill="#06d6a0">~30</text>

  <!-- Row 2: dax query -->
  <text x="120" y="155" font-family="'Segoe UI', Arial, sans-serif" font-size="12" fill="#c9d1d9" text-anchor="end">dax query</text>
  <!-- MCP bar -->
  <rect x="135" y="141" width="575" height="14" rx="3" fill="#ff6b6b" fill-opacity="0.7"/>
  <text x="717" y="153" font-family="'Courier New', Courier, monospace" font-size="11" fill="#ff6b6b">4,600</text>
  <!-- CLI bar -->
  <rect x="135" y="159" width="5" height="14" rx="2" fill="#06d6a0"/>
  <text x="147" y="171" font-family="'Courier New', Courier, monospace" font-size="11" fill="#06d6a0">~35</text>

  <!-- Row 3: measure -->
  <text x="120" y="210" font-family="'Segoe UI', Arial, sans-serif" font-size="12" fill="#c9d1d9" text-anchor="end">measure</text>
  <!-- MCP bar -->
  <rect x="135" y="196" width="550" height="14" rx="3" fill="#ff6b6b" fill-opacity="0.7"/>
  <text x="692" y="208" font-family="'Courier New', Courier, monospace" font-size="11" fill="#ff6b6b">4,400</text>
  <!-- CLI bar -->
  <rect x="135" y="214" width="4" height="14" rx="2" fill="#06d6a0"/>
  <text x="146" y="226" font-family="'Courier New', Courier, monospace" font-size="11" fill="#06d6a0">~28</text>

  <!-- Row 4: model stats -->
  <text x="120" y="265" font-family="'Segoe UI', Arial, sans-serif" font-size="12" fill="#c9d1d9" text-anchor="end">model</text>
  <!-- MCP bar -->
  <rect x="135" y="251" width="525" height="14" rx="3" fill="#ff6b6b" fill-opacity="0.7"/>
  <text x="667" y="263" font-family="'Courier New', Courier, monospace" font-size="11" fill="#ff6b6b">4,200</text>
  <!-- CLI bar -->
  <rect x="135" y="269" width="4" height="14" rx="2" fill="#06d6a0"/>
  <text x="146" y="281" font-family="'Courier New', Courier, monospace" font-size="11" fill="#06d6a0">~25</text>

  <!-- Row 5: export -->
  <text x="120" y="320" font-family="'Segoe UI', Arial, sans-serif" font-size="12" fill="#c9d1d9" text-anchor="end">export</text>
  <!-- MCP bar -->
  <rect x="135" y="306" width="563" height="14" rx="3" fill="#ff6b6b" fill-opacity="0.7"/>
  <text x="705" y="318" font-family="'Courier New', Courier, monospace" font-size="11" fill="#ff6b6b">4,500</text>
  <!-- CLI bar -->
  <rect x="135" y="324" width="4" height="14" rx="2" fill="#06d6a0"/>
  <text x="146" y="336" font-family="'Courier New', Courier, monospace" font-size="11" fill="#06d6a0">~32</text>

  <!-- Legend -->
  <rect x="230" y="378" width="14" height="14" rx="2" fill="#ff6b6b" fill-opacity="0.7"/>
  <text x="250" y="390" font-family="'Segoe UI', Arial, sans-serif" font-size="12" fill="#ff6b6b">MCP tool call</text>

  <rect x="380" y="378" width="14" height="14" rx="2" fill="#06d6a0"/>
  <text x="400" y="390" font-family="'Segoe UI', Arial, sans-serif" font-size="12" fill="#06d6a0">CLI command</text>

  <text x="530" y="390" font-family="'Segoe UI', Arial, sans-serif" font-size="12" fill="#8b949e">|</text>

  <text x="550" y="390" font-family="'Segoe UI', Arial, sans-serif" font-size="12" fill="#F2C811" font-weight="bold">~130x savings</text>

  <!-- Footer -->
  <text x="425" y="414" font-family="'Segoe UI', Arial, sans-serif" font-size="11" fill="#8b949e" text-anchor="middle">Same capabilities, fraction of the cost. Your AI budget goes 100x further.</text>
</svg>
